<?xml version="1.0" encoding="utf-8"?>
<!-- Svg Vector Icons : http://www.onlinewebfonts.com/icon -->
<!DOCTYPE svg PUBLIC "-//W3C//DTD SVG 1.1//EN" "http://www.w3.org/Graphics/SVG/1.1/DTD/svg11.dtd">
<svg version="1.1" xmlns="http://www.w3.org/2000/svg" xmlns:xlink="http://www.w3.org/1999/xlink" x="0px" y="0px" viewBox="0 0 1000 1000" enable-background="new 0 0 1000 1000" xml:space="preserve">
<metadata> Svg Vector Icons : http://www.onlinewebfonts.com/icon </metadata>
<g><g transform="matrix(1 0 0 -1 0 1008)"><path d="M832.5,540.1L940.4,648L640,948.4L532.1,840.5l52.5-52.5L383.3,586.8c-21.4,5.8-43.7,8.8-67.1,8.8c-67.4,0-127-22.4-178.9-67.1l383.1-383.1c44.7,50.6,67.1,110.2,67.1,178.9c0,23.3-2.9,45.7-8.8,67.1L780,592.6L832.5,540.1z M640,998l350-350L832.5,490.5L780,543L617.6,380.6c3.2-20.7,4.9-39.5,4.9-56.4c0-84.3-34-160.4-102.1-228.5L317.2,299c-46.7-51.9-101.3-107.8-163.8-167.7C90.9,71.3,43.1,33.6,10,18c26.6,56.4,120.2,158.8,281,307.2L87.8,528.4c68.1,68.1,144.2,102.1,228.5,102.1c16.9,0,35.6-1.6,56.4-4.9L535,788l-52.5,52.5L640,998z"/></g></g>
</svg>